<svg width="100" height="100" viewBox="0 0 100 100" fill="none" xmlns="http://www.w3.org/2000/svg">
<circle cx="50" cy="50" r="50" fill="black"/>
<path d="M30.4274 78V72.2099C36.1254 67.2551 40.9972 62.8477 45.0427 58.9877C49.1453 55.1276 52.2792 51.6132 54.4444 48.4444C56.6667 45.2181 57.7778 42.1934 57.7778 39.3704C57.7778 36.4321 56.8946 34.1276 55.1282 32.4568C53.3618 30.7284 50.7692 29.8642 47.3504 29.8642C45.0142 29.8642 42.849 30.4691 40.8547 31.679C38.8604 32.8889 37.037 34.3292 35.3846 36L30 30.4691C32.6211 27.7613 35.3846 25.6872 38.2906 24.2469C41.1966 22.749 44.6439 22 48.6325 22C52.3932 22 55.641 22.6914 58.3761 24.0741C61.1681 25.4568 63.3333 27.4156 64.8718 29.9506C66.4103 32.4856 67.1795 35.4527 67.1795 38.8519C67.1795 42.0782 66.1823 45.3909 64.188 48.7901C62.1937 52.1317 59.4872 55.5597 56.0684 59.0741C52.7066 62.5885 48.9174 66.2757 44.7009 70.1358C46.2963 69.963 47.9772 69.8189 49.7436 69.7037C51.51 69.5885 53.1339 69.5309 54.6154 69.5309H70V78H30.4274Z" fill="#006100"/>
</svg>
